# xmcd CD database file
#
# Track frame offsets:
#	150
#	14790
#	37742
#	61415
#	79323
#	100452
#	122747
#	142825
#	165484
#	182173
#
# Disc length: 2745 seconds
#
# Revision: 0
# Processed by: cddbd v1.5.1PL0 Copyright (c) Steve Scherf et al.
# Submitted via: CDex 1.51
#
DISCID=810ab70a
DTITLE=Bódy Magdi - I love New York
DYEAR=2002
DGENRE=Jazz
TTITLE0=New York, New York
TTITLE1=New York state of mind
TTITLE2=Falling for your love
TTITLE3=Take it easy
TTITLE4=Shine your lovelight
TTITLE5=I love you more
TTITLE6=Don't fight me
TTITLE7=The true inside of you
TTITLE8=I love New York
TTITLE9=Hidd el
EXTD=YEAR: 2002
EXTT0=
EXTT1=
EXTT2=
EXTT3=
EXTT4=
EXTT5=
EXTT6=
EXTT7=
EXTT8=
EXTT9=
PLAYORDER=
